<svg xmlns="http://www.w3.org/2000/svg" height="58.36" width="62.683"><defs><clipPath id="a"><path d="M0 0h47.012v43.77H0z"/></clipPath><clipPath id="b"><path d="M0 0h47.012v43.77H0z"/></clipPath></defs><g clip-path="url(#a)" transform="matrix(1.33333 0 0 -1.33333 0 58.36)"><path d="M21.473 8.408c-2.268 0-4.106-1.882-4.106-4.205 0-2.32 1.838-4.203 4.106-4.203 2.267 0 4.105 1.883 4.105 4.203 0 2.323-1.838 4.205-4.105 4.205m14.94 0c-2.268 0-4.106-1.882-4.106-4.205 0-2.32 1.838-4.203 4.106-4.203 2.267 0 4.105 1.883 4.105 4.203 0 2.323-1.838 4.205-4.105 4.205" fill="#b4c36b"/></g><path d="M21.48 44.5l.005.027.1-.026z" fill="#b4c36b"/><g clip-path="url(#b)" transform="matrix(1.33333 0 0 -1.33333 0 58.36)"><path d="M40.818 17.14a.969.969 0 0 1 .144.194c.012.021.024.041.034.063.045.084.08.172.107.266l5.762 15.173a2.237 2.237 0 0 1-.765 2.604 3.133 3.133 0 0 1-1.836.597H12.878l-1.676 6.327a1.894 1.894 0 0 1-1.796 1.368l-7.646.038c-1-.005-1.763-.575-1.76-1.508.005-.932.774-1.875 1.772-1.87l6.736-.17 7.7-29.829h24.68c1.216 0 2.2.714 2.2 1.593 0 .88-.984 1.592-2.2 1.592h-22.13l-.797 3.02h21.62c.503 0 .95.214 1.237.543" fill="#b4c36b"/></g></svg>
