<?xml version="1.0" encoding="UTF-8" standalone="no"?>
<svg
   xmlns:dc="http://purl.org/dc/elements/1.1/"
   xmlns:cc="http://creativecommons.org/ns#"
   xmlns:rdf="http://www.w3.org/1999/02/22-rdf-syntax-ns#"
   xmlns="http://www.w3.org/2000/svg"
   viewBox="0 0 62.682533 58.3596"
   height="58.3596"
   width="62.682533"
   xml:space="preserve"
   id="svg2"
   version="1.1"><metadata
     id="metadata8"><rdf:RDF><cc:Work
         rdf:about=""><dc:format>image/svg+xml</dc:format><dc:type
           rdf:resource="http://purl.org/dc/dcmitype/StillImage" /></cc:Work></rdf:RDF></metadata><defs
     id="defs6"><clipPath
       id="clipPath18"
       clipPathUnits="userSpaceOnUse"><path
         id="path16"
         d="M 0,0 H 47.012 V 43.77 H 0 Z" /></clipPath><clipPath
       id="clipPath38"
       clipPathUnits="userSpaceOnUse"><path
         id="path36"
         d="M 0,0 H 47.012 V 43.77 H 0 Z" /></clipPath></defs><g
     transform="matrix(1.3333333,0,0,-1.3333333,0,58.3596)"
     id="g10"><g
       id="g12"><g
         clip-path="url(#clipPath18)"
         id="g14"><g
           transform="translate(21.4729,8.4076)"
           id="g20"><path
             id="path22"
             style="fill:#b4c36b;fill-opacity:1;fill-rule:nonzero;stroke:none"
             d="m 0,0 c -2.268,0 -4.106,-1.882 -4.106,-4.205 0,-2.32 1.838,-4.203 4.106,-4.203 2.267,0 4.105,1.883 4.105,4.203 C 4.105,-1.882 2.267,0 0,0" /></g><g
           transform="translate(36.4133,8.4076)"
           id="g24"><path
             id="path26"
             style="fill:#b4c36b;fill-opacity:1;fill-rule:nonzero;stroke:none"
             d="m 0,0 c -2.268,0 -4.106,-1.882 -4.106,-4.205 0,-2.32 1.838,-4.203 4.106,-4.203 2.267,0 4.105,1.883 4.105,4.203 C 4.105,-1.882 2.267,0 0,0" /></g></g></g><g
       transform="translate(16.11,10.3941)"
       id="g28"><path
         id="path30"
         style="fill:#b4c36b;fill-opacity:1;fill-rule:nonzero;stroke:none"
         d="M 0,0 0.004,-0.02 0.079,0 Z" /></g><g
       id="g32"><g
         clip-path="url(#clipPath38)"
         id="g34"><g
           transform="translate(40.8177,17.1405)"
           id="g40"><path
             id="path42"
             style="fill:#b4c36b;fill-opacity:1;fill-rule:nonzero;stroke:none"
             d="m 0,0 c 0.055,0.057 0.103,0.122 0.143,0.192 0,0 0,0.001 0.001,0.002 0.012,0.021 0.024,0.041 0.034,0.063 0.045,0.084 0.081,0.172 0.107,0.266 l 5.762,15.173 c 0.359,0.944 0.044,2.018 -0.765,2.603 v 0 C 4.745,18.687 4.104,18.896 3.446,18.896 H -27.94 l -1.676,6.327 c -0.242,0.81 -0.97,1.364 -1.796,1.368 l -7.646,0.038 c -0.999,-0.004 -1.763,-0.574 -1.76,-1.507 0.005,-0.933 0.774,-1.876 1.772,-1.871 l 6.736,-0.17 7.701,-29.828 H 0.07 c 1.216,0 2.201,0.714 2.201,1.593 0,0.88 -0.985,1.592 -2.201,1.592 h -22.129 l -0.798,3.019 h 21.621 c 0.502,0 0.95,0.214 1.236,0.543" /></g></g></g></g></svg>